<svg xmlns="http://www.w3.org/2000/svg" viewBox="0 0 800 500" width="800" height="500">
<defs>
<linearGradient id="bg-bk" x1="1" y1="0" x2="0" y2="1">
<stop offset="0" stop-color="#3e5c76"/><stop offset="0.55" stop-color="#1d2d44"/><stop offset="1" stop-color="#0d1321"/>
</linearGradient>
<radialGradient id="glow-bk"><stop offset="0" stop-color="#f0ebd8" stop-opacity=".45"/><stop offset="1" stop-color="#f0ebd8" stop-opacity="0"/></radialGradient>
<pattern id="dots-bk" width="22" height="22" patternUnits="userSpaceOnUse"><circle cx="2" cy="2" r="1.6" fill="#f0ebd8" fill-opacity=".22"/></pattern>
<linearGradient id="fade-bk" x1="0" y1="0" x2="0" y2="1"><stop offset=".45" stop-color="#0d1321" stop-opacity="0"/><stop offset="1" stop-color="#0d1321" stop-opacity=".55"/></linearGradient>
</defs>
<rect width="800" height="500" fill="url(#bg-bk)"/>
<circle cx="650" cy="180" r="260" fill="url(#glow-bk)"/>
<rect x="430" y="90" width="44" height="44" rx="10" fill="#f0ebd8" fill-opacity="0.08" stroke="#f0ebd8" stroke-opacity=".25"/><rect x="486" y="90" width="44" height="44" rx="10" fill="#f0ebd8" fill-opacity="0.08" stroke="#f0ebd8" stroke-opacity=".25"/><rect x="542" y="90" width="44" height="44" rx="10" fill="#f0ebd8" fill-opacity="0.08" stroke="#f0ebd8" stroke-opacity=".25"/><rect x="598" y="90" width="44" height="44" rx="10" fill="#f0ebd8" fill-opacity="0.6" stroke="#f0ebd8" stroke-opacity=".25"/><rect x="654" y="90" width="44" height="44" rx="10" fill="#f0ebd8" fill-opacity="0.08" stroke="#f0ebd8" stroke-opacity=".25"/><rect x="710" y="90" width="44" height="44" rx="10" fill="#f0ebd8" fill-opacity="0.08" stroke="#f0ebd8" stroke-opacity=".25"/><rect x="430" y="146" width="44" height="44" rx="10" fill="#f0ebd8" fill-opacity="0.08" stroke="#f0ebd8" stroke-opacity=".25"/><rect x="486" y="146" width="44" height="44" rx="10" fill="#f0ebd8" fill-opacity="0.08" stroke="#f0ebd8" stroke-opacity=".25"/><rect x="542" y="146" width="44" height="44" rx="10" fill="#f0ebd8" fill-opacity="0.08" stroke="#f0ebd8" stroke-opacity=".25"/><rect x="598" y="146" width="44" height="44" rx="10" fill="#f0ebd8" fill-opacity="0.08" stroke="#f0ebd8" stroke-opacity=".25"/><rect x="654" y="146" width="44" height="44" rx="10" fill="#f0ebd8" fill-opacity="0.6" stroke="#f0ebd8" stroke-opacity=".25"/><rect x="710" y="146" width="44" height="44" rx="10" fill="#f0ebd8" fill-opacity="0.08" stroke="#f0ebd8" stroke-opacity=".25"/><rect x="430" y="202" width="44" height="44" rx="10" fill="#f0ebd8" fill-opacity="0.08" stroke="#f0ebd8" stroke-opacity=".25"/><rect x="486" y="202" width="44" height="44" rx="10" fill="#f0ebd8" fill-opacity="0.08" stroke="#f0ebd8" stroke-opacity=".25"/><rect x="542" y="202" width="44" height="44" rx="10" fill="#f0ebd8" fill-opacity="0.08" stroke="#f0ebd8" stroke-opacity=".25"/><rect x="598" y="202" width="44" height="44" rx="10" fill="#f0ebd8" fill-opacity="0.08" stroke="#f0ebd8" stroke-opacity=".25"/><rect x="654" y="202" width="44" height="44" rx="10" fill="#f0ebd8" fill-opacity="0.08" stroke="#f0ebd8" stroke-opacity=".25"/><rect x="710" y="202" width="44" height="44" rx="10" fill="#f0ebd8" fill-opacity="0.6" stroke="#f0ebd8" stroke-opacity=".25"/><rect x="430" y="258" width="44" height="44" rx="10" fill="#f0ebd8" fill-opacity="0.08" stroke="#f0ebd8" stroke-opacity=".25"/><rect x="486" y="258" width="44" height="44" rx="10" fill="#f0ebd8" fill-opacity="0.08" stroke="#f0ebd8" stroke-opacity=".25"/><rect x="542" y="258" width="44" height="44" rx="10" fill="#f0ebd8" fill-opacity="0.08" stroke="#f0ebd8" stroke-opacity=".25"/><rect x="598" y="258" width="44" height="44" rx="10" fill="#f0ebd8" fill-opacity="0.08" stroke="#f0ebd8" stroke-opacity=".25"/><rect x="654" y="258" width="44" height="44" rx="10" fill="#f0ebd8" fill-opacity="0.08" stroke="#f0ebd8" stroke-opacity=".25"/><rect x="710" y="258" width="44" height="44" rx="10" fill="#f0ebd8" fill-opacity="0.08" stroke="#f0ebd8" stroke-opacity=".25"/><circle cx="676" cy="168" r="40" fill="none" stroke="#f0ebd8" stroke-opacity=".7" stroke-width="2"/><rect x="40" y="60" width="260" height="200" fill="url(#dots-bk)"/>
<rect width="800" height="500" fill="url(#fade-bk)"/>
</svg>